# xmcd CD database file
#
# Track frame offsets:
#	150
#	18980
#	38500
#	56950
#	78892
#	104265
#	129380
#	166467
#	188670
#	211037
#	234697
#	252950
#	277217
#	295012
#	315902
#
# Disc length: 4617 seconds
#
# Revision: 0
# Processed by: cddbd v1.5.1PL0 Copyright (c) Steve Scherf et al.
# Submitted via: CDex 1.51
#
DISCID=c712070f
DTITLE=HOUND DOG - LUCKY and HAPPY Live Best Hit
DYEAR=1900
DGENRE=Rock and Roll
TTITLE0=I'm Happy
TTITLE1=俺はラッキースター
TTITLE2=BRIDGE〜あの橋をわたるとき
TTITLE3=DO IT
TTITLE4=HARBOR LIGHT
TTITLE5=今日も電車で
TTITLE6=Funky Lips
TTITLE7=ONLY LOVE
TTITLE8=”J"のバラード
TTITLE9=SMILE FOR ME
TTITLE10=DESTINY
TTITLE11=Bad Boy Blues
TTITLE12=ROAD RUNNER
TTITLE13=Knock Me Tonight
TTITLE14=STORONG　LOVE
EXTD=
EXTT0=
EXTT1=
EXTT2=
EXTT3=
EXTT4=
EXTT5=
EXTT6=
EXTT7=
EXTT8=
EXTT9=
EXTT10=
EXTT11=
EXTT12=
EXTT13=
EXTT14=
PLAYORDER=
